<svg width="34" height="11" viewBox="0 0 34 11" fill="none" xmlns="http://www.w3.org/2000/svg">
<path d="M5.56613 2.92828H6.68421L3.9133 10.6945H2.7466L0 2.92828H1.09378L3.32995 9.62503L5.56613 2.92828Z" fill="black"/>
<path d="M14.8028 8.45371C14.6813 9.11575 14.3653 9.70139 14.0007 10.1088C13.2958 10.8982 12.4451 11 11.643 11C10.8652 11 9.94154 10.9236 9.13944 10.1088C8.2401 9.19214 8.04565 7.91899 8.04565 6.79862C8.04565 5.98381 8.14288 4.60881 9.06652 3.61575C9.86862 2.75001 10.8895 2.64816 11.5701 2.64816C12.202 2.64816 13.1986 2.75001 13.9278 3.56483C14.7299 4.43057 14.8514 5.62733 14.9 7.02779H9.09082C9.13944 8.25001 9.45542 9.0139 9.86862 9.49769C10.2818 9.98149 10.8652 10.2616 11.6673 10.2616C12.4451 10.2616 12.9069 9.95602 13.1986 9.67593C13.6604 9.2176 13.8062 8.63195 13.8305 8.47917H14.8028V8.45371ZM13.8305 6.23844C13.8305 5.60186 13.6118 4.53242 13.1257 3.9977C12.834 3.66668 12.3236 3.36112 11.5701 3.36112C10.7436 3.36112 10.136 3.69214 9.7957 4.09955C9.3825 4.58335 9.11513 5.44908 9.11513 6.21297H13.8305V6.23844Z" fill="black"/>
<path d="M21.3895 3.64109H21.2436C20.32 3.64109 19.7609 3.84479 19.2748 4.37951C18.6672 5.04155 18.5456 5.80544 18.5456 6.69664V10.6943H17.5491V2.92813H18.5456V4.48136H18.5699C18.813 3.87025 19.1776 3.48831 19.4936 3.28461C20.1012 2.85174 20.7089 2.80081 21.2193 2.80081H21.3895V3.64109Z" fill="black"/>
<path d="M24.282 0V10.6944H23.2854V0H24.282Z" fill="black"/>
<path d="M33.7127 8.45369C33.5912 9.11573 33.2752 9.70137 32.9106 10.1088C32.2057 10.8981 31.355 11 30.5529 11C29.7751 11 28.8515 10.9236 28.0493 10.1088C27.15 9.19211 26.9556 7.91897 26.9556 6.7986C26.9556 5.98379 27.0528 4.60879 27.9764 3.61574C28.7785 2.75 29.7994 2.64814 30.48 2.64814C31.1119 2.64814 32.1085 2.75 32.8377 3.56481C33.6398 4.43055 33.7613 5.62731 33.8099 7.02777H28.0007C28.0493 8.24999 28.3653 9.01387 28.7785 9.49767C29.1917 9.98147 29.7751 10.2616 30.5772 10.2616C31.355 10.2616 31.8168 9.956 32.1085 9.67591C32.5703 9.21758 32.7161 8.63193 32.7404 8.47915H33.7127V8.45369ZM32.7161 6.23842C32.7161 5.60184 32.4974 4.5324 32.0113 3.99768C31.7196 3.66666 31.2092 3.36111 30.4557 3.36111C29.6293 3.36111 29.0216 3.69212 28.6813 4.09953C28.2681 4.58333 28.0007 5.44907 28.0007 6.21295H32.7161V6.23842ZM32.0599 0L30.6744 2.01157H29.7751L30.796 0H32.0599Z" fill="black"/>
</svg>
