<?xml version="1.0" standalone="no"?>
<!DOCTYPE svg PUBLIC "-//W3C//DTD SVG 20010904//EN"
 "http://www.w3.org/TR/2001/REC-SVG-20010904/DTD/svg10.dtd">
<svg version="1.0" xmlns="http://www.w3.org/2000/svg"
 width="304.000000pt" height="304.000000pt" viewBox="0 0 304.000000 304.000000"
 preserveAspectRatio="xMidYMid meet">
<metadata>
Created by potrace 1.14, written by Peter Selinger 2001-2017
</metadata>
<g transform="translate(0.000000,304.000000) scale(0.100000,-0.100000)"
fill="#000000" stroke="none">
<path d="M1119 2794 c-7 -8 -21 -13 -31 -11 -10 3 -25 -2 -34 -10 -13 -13 -13
-18 -1 -37 17 -25 77 -35 77 -13 0 8 7 20 15 27 20 17 19 40 -2 41 -15 0 -15
2 2 9 15 7 16 9 4 9 -9 1 -22 -6 -30 -15z"/>
<path d="M801 2738 c-1 -15 -9 -16 -51 -12 -76 7 -176 -20 -220 -60 l-38 -34
40 -40 c34 -35 42 -40 58 -30 10 7 17 15 15 18 -2 3 5 11 16 18 15 10 19 10
19 0 0 -9 3 -10 8 -2 10 16 207 25 221 11 8 -8 11 -7 11 2 0 10 14 12 63 7 34
-4 76 -7 92 -7 17 0 57 -4 90 -9 33 -5 63 -6 67 -2 11 11 -25 52 -46 52 -9 0
-16 5 -16 11 0 7 -11 9 -30 6 -23 -5 -30 -3 -30 9 0 11 -6 13 -20 9 -12 -4
-28 -1 -36 5 -8 8 -30 11 -54 7 -30 -4 -46 0 -64 14 -13 10 -38 19 -54 19 -17
0 -33 6 -35 13 -3 7 -6 5 -6 -5z"/>
<path d="M1115 2687 c22 -18 95 -23 95 -7 0 6 -8 10 -17 10 -10 0 -36 3 -58 6
-38 6 -39 6 -20 -9z"/>
<path d="M1241 2631 c-9 -6 -11 -18 -6 -40 6 -29 10 -31 53 -33 26 -1 61 -2
77 -3 17 -1 45 -2 62 -3 20 -1 32 -7 30 -14 -3 -15 58 -12 91 4 29 15 23 32
-14 38 -17 3 -33 14 -39 27 -7 16 -19 22 -52 25 -24 2 -48 -1 -53 -6 -7 -7
-26 -6 -55 2 -53 14 -75 15 -94 3z"/>
<path d="M1623 2503 c9 -2 23 -2 30 0 6 3 -1 5 -18 5 -16 0 -22 -2 -12 -5z"/>
<path d="M1028 2073 c7 -3 16 -2 19 1 4 3 -2 6 -13 5 -11 0 -14 -3 -6 -6z"/>
<path d="M920 2050 c-14 -4 -40 -8 -59 -9 -25 -1 -44 -10 -67 -33 -18 -18 -45
-44 -61 -58 -15 -14 -28 -31 -28 -39 0 -21 -20 -24 -39 -6 -15 15 -18 15 -42
-4 -14 -11 -48 -23 -74 -27 -34 -4 -61 -17 -96 -45 -27 -21 -63 -45 -81 -54
-17 -9 -34 -23 -37 -31 -3 -8 -12 -14 -19 -14 -8 0 -22 -9 -33 -21 -18 -20
-18 -21 4 -60 17 -30 21 -47 16 -79 -5 -31 -3 -41 10 -46 21 -8 3 -44 -23 -44
-15 0 -21 -10 -26 -41 -6 -36 -10 -40 -29 -34 -11 3 -40 12 -62 18 -37 11 -41
14 -33 35 5 14 17 22 31 22 18 0 20 2 9 9 -12 8 -12 12 -2 25 10 12 9 20 -3
44 -11 22 -12 32 -3 41 8 8 6 11 -11 11 -26 0 -30 27 -7 44 18 13 9 56 -11 56
-8 0 -14 -5 -14 -12 0 -6 -13 0 -28 15 -15 15 -36 27 -45 27 -9 0 -17 7 -17
15 0 8 -4 15 -10 15 -5 0 -10 -6 -10 -12 0 -7 -5 -64 -10 -126 -8 -105 -8
-114 10 -132 13 -13 20 -15 24 -7 2 7 5 4 5 -5 1 -23 -18 -33 -25 -14 -3 9
-11 16 -16 16 -26 0 20 -303 68 -448 33 -102 121 -279 183 -372 224 -333 590
-572 994 -647 127 -24 406 -24 537 0 116 22 274 73 374 123 74 37 74 37 72 74
-2 21 -13 50 -25 65 -23 30 -27 45 -11 45 6 0 10 -7 10 -15 0 -20 39 -20 46 0
8 19 38 19 54 0 7 -8 16 -13 20 -10 4 3 19 -4 32 -15 l25 -19 59 46 c174 134
332 326 427 518 46 93 53 117 33 109 -11 -4 -16 -1 -16 10 0 21 -12 20 -41 -2
-36 -28 -72 -34 -98 -16 -28 20 -76 11 -67 -12 4 -11 -9 -22 -49 -40 -31 -13
-62 -24 -71 -24 -19 0 -44 -58 -44 -101 0 -18 -7 -40 -16 -50 -10 -11 -17 -39
-18 -73 -1 -31 -7 -61 -14 -68 -16 -16 -15 -28 2 -28 20 0 26 -12 20 -38 -8
-29 -67 -38 -116 -17 -21 8 -49 15 -64 15 -18 0 -37 11 -56 32 -24 27 -31 30
-38 18 -5 -8 -24 -20 -42 -27 -18 -6 -27 -12 -20 -12 8 -1 0 -13 -17 -27 -17
-14 -31 -33 -32 -42 0 -10 -3 -12 -5 -5 -4 8 -13 9 -29 3 -12 -5 -26 -6 -29
-3 -3 3 -8 -2 -12 -11 -3 -9 -10 -14 -14 -11 -5 3 -16 -2 -24 -11 -9 -8 -16
-11 -16 -5 0 6 -11 6 -30 1 -20 -6 -32 -5 -37 3 -5 7 -17 17 -28 24 -11 6 -19
16 -18 22 2 6 -6 15 -17 21 -11 6 -20 17 -20 25 0 8 -4 15 -10 15 -5 0 -10 -9
-10 -20 0 -11 -8 -23 -17 -26 -10 -3 -35 -13 -55 -21 -20 -9 -47 -13 -60 -9
-33 8 -75 104 -80 182 -4 56 -2 61 21 72 14 7 30 12 36 12 14 0 55 -42 55 -56
0 -5 17 -10 37 -11 22 -1 32 1 24 6 -9 6 -8 9 6 13 16 4 19 0 16 -21 -5 -34 6
-48 41 -57 21 -5 27 -4 22 5 -5 7 0 21 9 31 10 11 14 26 10 38 -11 35 56 41
69 6 8 -21 19 -17 57 20 20 20 46 36 64 38 17 1 30 9 30 16 0 7 7 17 15 22 11
7 11 10 2 10 -7 0 -10 5 -7 10 4 6 15 8 26 5 28 -9 23 2 -21 46 -44 44 -55 48
-63 19 -11 -43 -99 -9 -122 48 -11 25 -10 33 7 61 11 17 24 31 29 31 22 0 87
53 82 66 -3 9 2 14 15 14 13 0 22 9 26 25 4 14 14 29 24 32 20 8 52 42 52 55
0 5 9 6 20 3 17 -5 20 -2 20 23 0 35 -10 44 -69 62 -26 8 -54 27 -69 46 -25
31 -27 32 -53 19 -15 -8 -26 -22 -25 -32 2 -25 -34 -30 -41 -5 -7 28 -69 41
-168 36 -60 -3 -76 -1 -68 7 9 9 6 22 -10 54 -18 35 -35 50 -92 80 -60 30 -75
35 -97 26 -21 -8 -31 -6 -51 10 -14 10 -32 16 -40 13 -8 -3 -32 3 -52 13 -32
17 -35 21 -21 32 13 11 20 11 38 -1 38 -25 232 -43 256 -25 8 7 21 6 36 -1 20
-9 23 -8 19 6 -7 26 -24 45 -70 75 -24 15 -43 35 -43 44 0 13 8 15 55 9 35 -4
55 -2 55 4 0 20 31 9 42 -15 7 -16 17 -24 26 -20 7 3 18 5 24 5 6 0 6 6 -2 15
-7 9 -10 27 -7 44 5 24 3 29 -11 26 -20 -3 -32 12 -32 43 0 12 -4 22 -10 22
-5 0 -10 -4 -10 -10 0 -14 -37 -13 -42 1 -3 8 -10 8 -26 -2 -14 -9 -25 -10
-31 -4 -12 12 -16 93 -7 116 12 29 -18 42 -70 31 -26 -6 -53 -8 -61 -5 -10 4
-9 -2 4 -24 11 -20 29 -33 56 -40 28 -8 36 -8 28 0 -6 6 -11 18 -11 26 0 12 5
10 22 -7 34 -34 15 -55 -53 -60 -34 -2 -57 -9 -62 -19 -8 -12 -12 -12 -29 4
-12 10 -27 33 -35 51 -7 17 -20 32 -28 32 -8 0 -15 5 -15 11 0 5 5 7 10 4 6
-3 10 1 10 9 0 28 -155 52 -209 32 -17 -6 -21 -5 -17 3 4 6 -8 3 -27 -8 -37
-21 -52 -17 -52 14 0 13 -10 22 -34 29 -28 8 -41 6 -77 -13 -55 -30 -82 -22
-31 9 20 12 37 27 37 32 0 6 10 8 23 5 32 -9 53 6 32 23 -8 7 -15 9 -15 5 0
-4 -11 0 -25 9 -13 9 -26 16 -27 15 -2 -1 -14 -5 -28 -9z m79 -347 c17 -10 31
-21 31 -26 0 -4 11 -5 25 -1 23 6 25 3 25 -25 0 -33 53 -100 80 -102 10 0 11
-2 3 -6 -7 -2 -13 -13 -13 -24 0 -23 -45 -37 -72 -20 -12 8 -18 8 -18 0 0 -6
-7 -9 -16 -7 -8 2 -14 7 -14 11 1 5 -11 22 -26 38 -15 16 -24 29 -21 29 4 0 3
9 -3 20 -9 18 -17 19 -65 14 l-55 -7 0 33 c0 25 8 41 32 62 36 32 64 35 107
11z m282 -123 c10 -6 19 -16 19 -22 0 -15 68 -75 93 -84 10 -3 16 -11 14 -17
-2 -7 4 -31 15 -55 10 -24 18 -46 18 -48 0 -9 -39 -3 -45 6 -4 6 -22 17 -41
25 -19 8 -34 19 -34 24 0 16 20 13 26 -4 4 -8 10 -15 15 -15 5 0 3 11 -3 25
-9 20 -18 25 -49 25 -40 0 -100 42 -98 70 0 10 2 11 6 3 11 -30 25 -10 21 32
-3 48 5 55 43 35z m-1221 -30 c-20 -13 -33 -13 -25 0 3 6 14 10 23 10 15 0 15
-2 2 -10z m1380 -101 c0 -5 -4 -9 -10 -9 -5 0 -10 7 -10 16 0 8 5 12 10 9 6
-3 10 -10 10 -16z m105 -80 c4 -6 25 -9 48 -7 28 2 42 -2 45 -11 3 -10 0 -12
-12 -8 -10 4 -19 1 -22 -8 -8 -19 -33 -19 -40 0 -4 8 -15 15 -25 15 -10 0 -19
7 -19 15 0 17 16 20 25 4z m585 -210 c0 -6 -4 -7 -10 -4 -5 3 -10 11 -10 16 0
6 5 7 10 4 6 -3 10 -11 10 -16z m-310 -240 c0 -10 -5 -19 -12 -19 -6 0 -9 -2
-7 -5 3 -2 20 0 38 5 29 8 32 7 26 -8 -4 -9 -9 -24 -12 -32 -4 -15 -56 -50
-73 -50 -16 0 -20 33 -7 54 8 12 18 36 22 54 7 34 25 35 25 1z m-570 -95 c0
-8 7 -14 15 -14 8 0 15 -5 15 -11 0 -6 -6 -9 -13 -6 -10 4 -13 -4 -13 -26 1
-18 5 -35 10 -38 11 -9 15 -78 4 -85 -15 -10 -8 -24 13 -24 15 0 19 5 15 15
-3 9 0 15 9 15 8 0 15 -7 15 -15 0 -9 6 -18 14 -21 8 -3 18 -19 21 -35 4 -16
13 -36 21 -43 12 -13 10 -17 -16 -36 -23 -16 -37 -20 -66 -14 -21 4 -39 2 -43
-3 -3 -6 -16 -13 -28 -17 -19 -6 -23 -4 -23 13 0 27 -17 36 -70 36 -37 0 -45
3 -48 20 -2 14 6 24 28 34 22 9 28 17 21 24 -6 6 -5 14 5 24 12 12 12 18 -1
44 -9 16 -19 29 -24 29 -4 0 -13 11 -19 25 -7 16 -8 25 -2 25 6 0 16 -11 22
-25 12 -27 38 -34 38 -10 0 8 4 15 9 15 4 0 11 19 14 41 7 55 21 68 47 44 11
-10 20 -13 20 -7 0 6 -4 14 -10 17 -5 3 -10 15 -10 27 0 17 2 18 15 8 8 -7 15
-19 15 -26z m330 -138 c0 -12 -14 5 -31 39 -8 16 -6 15 10 -4 12 -13 21 -28
21 -35z m-160 -45 c0 -5 -7 -17 -17 -26 -15 -15 -17 -15 -25 -1 -5 9 -6 21 -3
26 8 13 45 13 45 1z m78 -199 c2 -7 -3 -12 -12 -12 -9 0 -16 7 -16 16 0 17 22
14 28 -4z"/>
<path d="M1146 584 c-10 -26 -7 -34 13 -34 26 0 36 17 21 35 -16 19 -26 19
-34 -1z"/>
<path d="M1282 2013 c-26 -3 -31 -7 -22 -17 7 -9 25 -12 54 -9 24 3 53 0 65
-7 21 -11 22 -10 11 9 -6 12 -19 21 -30 21 -10 0 -24 2 -32 3 -7 2 -28 2 -46
0z"/>
<path d="M1986 1758 c-3 -13 -2 -26 3 -31 5 -5 11 5 13 22 5 36 -7 42 -16 9z"/>
<path d="M138 1723 c7 -3 16 -2 19 1 4 3 -2 6 -13 5 -11 0 -14 -3 -6 -6z"/>
<path d="M2050 1653 c0 -4 5 -15 10 -23 8 -13 10 -13 10 2 0 9 -4 20 -10 23
-5 3 -10 3 -10 -2z"/>
<path d="M1940 1629 c0 -11 4 -18 10 -14 5 3 7 12 3 20 -7 21 -13 19 -13 -6z"/>
<path d="M1792 1600 c0 -19 2 -27 5 -17 2 9 2 25 0 35 -3 9 -5 1 -5 -18z"/>
<path d="M1951 1574 c0 -11 3 -14 6 -6 3 7 2 16 -1 19 -3 4 -6 -2 -5 -13z"/>
<path d="M1975 1510 c3 -5 11 -10 16 -10 6 0 7 5 4 10 -3 6 -11 10 -16 10 -6
0 -7 -4 -4 -10z"/>
<path d="M1806 1466 c-5 -29 -4 -52 2 -58 13 -13 144 11 136 24 -4 5 -12 7
-19 4 -7 -2 -23 2 -35 11 -12 8 -32 13 -45 10 -14 -2 -22 -1 -20 4 3 4 1 18
-4 30 -7 20 -9 17 -15 -25z"/>
<path d="M2131 1424 c0 -11 3 -14 6 -6 3 7 2 16 -1 19 -3 4 -6 -2 -5 -13z"/>
<path d="M2351 1334 c0 -11 3 -14 6 -6 3 7 2 16 -1 19 -3 4 -6 -2 -5 -13z"/>
<path d="M2951 1118 c-14 -5 -32 -7 -40 -6 -29 5 -41 -13 -41 -57 0 -39 4 -46
30 -60 16 -8 31 -15 34 -15 7 0 48 129 44 139 -2 5 -14 5 -27 -1z"/>
<path d="M2193 649 c12 -7 15 -17 11 -35 -4 -17 -2 -24 7 -24 17 0 49 20 33
20 -6 0 -16 11 -22 25 -6 14 -20 25 -29 25 -17 -1 -17 -1 0 -11z"/>
</g>
</svg>
